<svg xmlns="http://www.w3.org/2000/svg" version="1.1" xmlns:xlink="http://www.w3.org/1999/xlink" xmlns:svgjs="http://svgjs.com/svgjs" width="512" height="512" x="0" y="0" viewBox="0 0 496.001 496" style="enable-background:new 0 0 512 512" xml:space="preserve" class=""><g><path d="M91.785 439.441c-4.426 0-8-3.578-8-8v-38.57c0-4.422 3.574-8 8-8 4.422 0 8 3.578 8 8v38.57c0 4.414-3.586 8-8 8zm0 0" fill="#ffffff" data-original="#000000" opacity="1" class=""></path><path d="M260.2 451.207H8a7.99 7.99 0 0 1-8-8v-78.352c0-72.168 44.258-136.734 110.121-160.648 2.727-1 5.758-.43 7.934 1.45 18.168 15.558 41.09 24.136 64.554 24.136 23.575 0 46.567-8.625 64.743-24.297 2.191-1.879 5.25-2.45 7.96-1.457 17.008 6.188 32.856 15.188 47.102 26.762a7.95 7.95 0 0 1 2.953 6.496 7.978 7.978 0 0 1-3.398 6.265l-.969.68-4.398-6.273-4.266 5.258c-11.672-9.48-24.52-17.043-38.258-22.532-20.453 16.22-45.644 25.106-71.469 25.106-25.707 0-50.824-8.824-71.25-24.938C54.137 243.672 16 300.953 16 364.855v70.352h244.2zm0 0" fill="#ffffff" data-original="#000000" opacity="1" class=""></path><path d="M182.61 245.793c-65.075 0-118.008-55.137-118.008-122.895C64.602 55.137 117.535 0 182.609 0c65.07 0 118.016 55.129 118.016 122.887 0 67.761-52.945 122.906-118.016 122.906zm0-229.793C126.36 16 80.601 63.953 80.601 122.887c0 58.945 45.757 106.898 102.007 106.898 56.246 0 102.016-47.953 102.016-106.898C284.625 63.953 238.855 16 182.609 16zm0 0" fill="#ffffff" data-original="#000000" opacity="1" class=""></path><g fill="#010101"><path d="M356.848 411.207c-3.336 0-6.688-.3-10.024-.918-14.68-2.727-27.504-11.191-36.129-23.855-8.574-12.633-11.832-27.77-9.168-42.602 2.68-14.863 11.008-27.863 23.45-36.617 12.488-8.774 27.464-12.078 42.16-9.383 14.687 2.73 27.504 11.2 36.11 23.863l.065.09c8.489 12.848 11.72 27.953 9.114 42.504-2.684 14.856-11 27.856-23.45 36.61-9.656 6.78-20.792 10.308-32.128 10.308zm.28-98.3c-8.081 0-16.03 2.527-22.944 7.398-8.977 6.304-14.977 15.664-16.895 26.36-1.922 10.687.445 21.616 6.656 30.776 6.192 9.102 15.36 15.176 25.809 17.122 10.398 1.917 21.078-.465 30.023-6.754 8.977-6.305 14.977-15.664 16.895-26.352 1.879-10.473-.496-21.418-6.688-30.816-6.175-9.079-15.328-15.145-25.77-17.079a39.243 39.243 0 0 0-7.085-.656zm0 0" fill="#ffffff" data-original="#010101" class="" opacity="1"></path><path d="M358.871 496a17.07 17.07 0 0 1-3.07-.281l-46.89-8.688c-8.958-1.664-14.704-10.047-13.079-19.086l3.742-20.832a27.122 27.122 0 0 1-1.476-1.047l-.602-.394-17.305 12.168c-3.128 2.394-7.496 3.473-11.734 2.762a16.283 16.283 0 0 1-10.809-6.914l-27.023-39.743c-2.36-3.207-3.367-7.48-2.656-11.785.71-4.344 3.168-8.273 6.75-10.785l16.937-12.223a57.602 57.602 0 0 1-.351-1.863 20.26 20.26 0 0 1-.153-.914l-20.449-3.79c-4.191-.784-7.96-3.296-10.328-6.905-2.43-3.711-3.207-8.145-2.207-12.489l8.496-47.277c.793-4.418 3.184-8.203 6.75-10.672 3.547-2.457 7.883-3.363 12.219-2.562l20.297 3.77c.316-.505.644-.985.972-1.434l.504-.817-12.07-17.75c-2.352-3.191-3.36-7.457-2.664-11.762.71-4.343 3.168-8.277 6.742-10.8l39.129-27.504c3.137-2.383 7.512-3.438 11.738-2.758 4.375.71 8.313 3.23 10.809 6.91l12.008 17.656c.222-.054.445-.117.664-.175.261-.079.535-.145.812-.192.281-.054.57-.105.86-.144l3.75-20.871c.808-4.434 3.199-8.207 6.77-10.68 3.534-2.45 7.862-3.344 12.206-2.55l46.664 8.648c8.961 1.66 14.703 10.046 13.078 19.085l-3.75 20.833a26.06 26.06 0 0 1 1.489 1.046l.597.395 17.305-12.168c3.137-2.387 7.512-3.45 11.738-2.762 4.375.711 8.313 3.23 10.809 6.914l26.812 39.727c2.336 3.168 3.344 7.433 2.649 11.734-.711 4.344-3.168 8.281-6.742 10.801l-17.473 12.273c.07.32.144.633.223.926.074.258.136.512.175.785.059.313.114.625.16.946l20.442 3.789c8.191 1.523 13.93 9.105 13.656 18.011-.015.391-.055.782-.129 1.168l-8.566 47.672c-.8 4.422-3.192 8.207-6.77 10.68-3.55 2.445-7.87 3.32-12.215 2.543l-20.28-3.77c-.321.504-.65.985-.977 1.434l-.504.809 12.074 17.757c2.36 3.211 3.367 7.48 2.656 11.786-.715 4.343-3.168 8.273-6.754 10.785l-39.113 27.496c-3.133 2.39-7.492 3.46-11.734 2.765a16.355 16.355 0 0 1-10.809-6.902l-11.95-17.586c-.523.106-1.034.203-1.53.297-.286.047-.567.106-.864.145l-3.75 20.863c-.793 4.418-3.183 8.2-6.754 10.672a16.118 16.118 0 0 1-9.152 2.824zm-61.312-68.152a8 8 0 0 1 5.441 2.136c.816.754 1.754 1.32 2.688 1.938l1.832 1.215c.8.593 1.984 1.398 4.304 2.472a7.998 7.998 0 0 1 4.52 8.68l-4.758 26.488 47.133 9.207 5.074-26.816a7.996 7.996 0 0 1 5.977-6.36c1.644-.398 3.261-.617 4.824-.808.652-.086 1.293-.16 1.91-.27.969-.18 3.32-.617 4.832-1.218 3.504-1.399 7.496-.176 9.601 2.922l15.176 22.328 39.215-27.45-15.129-22.8a7.995 7.995 0 0 1 .656-9.832c.747-.832 1.305-1.793 1.915-2.75l1.199-1.856c.582-.808 1.383-2.035 2.465-4.426 1.504-3.359 5.062-5.23 8.757-4.593l26.047 4.832 8.746-47.262c-.074-.816-.418-1.305-.57-1.336l-26.047-4.832a7.999 7.999 0 0 1-6.32-6.023c-.399-1.657-.598-3.274-.79-4.825-.066-.57-.128-1.136-.21-1.671a44.16 44.16 0 0 1-.582-2.579c-.192-.91-.352-1.863-.68-2.718-1.351-3.434-.168-7.336 2.84-9.465l21.969-15.438-26.762-40.203-22.055 15.418a8.007 8.007 0 0 1-10.043-.68c-.812-.753-1.75-1.32-2.687-1.937l-1.832-1.215c-.8-.594-1.992-1.41-4.305-2.473a7.99 7.99 0 0 1-4.527-8.68l4.77-26.488-46.907-9.167-5.07 26.816a8.005 8.005 0 0 1-5.946 6.351c-1.656.407-3.261.625-4.824.817-.543.07-1.078.137-1.59.215a51.23 51.23 0 0 1-2.558.601c-.875.184-1.785.344-2.586.664-3.488 1.45-7.504.215-9.633-2.906l-15.176-22.328-39.215 27.441 15.13 22.801a7.991 7.991 0 0 1-.673 9.848c-.738.824-1.289 1.77-1.89 2.719l-1.207 1.875c-.582.804-1.383 2.03-2.465 4.421-1.504 3.36-5.04 5.23-8.758 4.594l-26.05-4.832-8.872 48 25.832 5.262a8.015 8.015 0 0 1 6.32 6c.4 1.672.61 3.297.801 4.863.079.672.16 1.328.262 1.961.168.953.594 3.39 1.211 4.984a7.984 7.984 0 0 1-2.77 9.399l-21.511 15.523 26.887 40.278 22.074-15.39a8.046 8.046 0 0 1 4.59-1.442zm0 0" fill="#ffffff" data-original="#010101" class="" opacity="1"></path></g></g></svg>