<svg xmlns="http://www.w3.org/2000/svg" version="1.1" xmlns:xlink="http://www.w3.org/1999/xlink" xmlns:svgjs="http://svgjs.com/svgjs" width="512" height="512" x="0" y="0" viewBox="0 0 512 512" style="enable-background:new 0 0 512 512" xml:space="preserve" class=""><g><path fill-rule="evenodd" d="M256 0c141.385 0 256 114.615 256 256S397.385 512 256 512 0 397.385 0 256 114.615 0 256 0zm150.009 256.014a18.75 18.75 0 0 0-18.765-18.765H170.025l73.219-73.219a18.751 18.751 0 0 0-26.5-26.533L111.49 242.748a18.75 18.75 0 0 0 0 26.5L216.74 374.5a18.751 18.751 0 0 0 26.5-26.532l-73.219-73.219h217.223a18.745 18.745 0 0 0 18.765-18.735z" fill="#85214f" data-original="#000000" class="" opacity="1"></path></g></svg>