<svg xmlns="http://www.w3.org/2000/svg" version="1.1" xmlns:xlink="http://www.w3.org/1999/xlink" xmlns:svgjs="http://svgjs.com/svgjs" width="512" height="512" x="0" y="0" viewBox="0 0 32 32" style="enable-background:new 0 0 512 512" xml:space="preserve" class=""><g><path d="M29 17H3a1 1 0 0 1 0-2h26a1 1 0 0 1 0 2zm1 6a1 1 0 0 0-1-1H3a1 1 0 0 0 0 2h26a1 1 0 0 0 1-1zm0-14a1 1 0 0 0-1-1H3a1 1 0 0 0 0 2h26a1 1 0 0 0 1-1z" data-name="Layer 6" fill="#000000" data-original="#000000" class=""></path></g></svg>