<svg xmlns="http://www.w3.org/2000/svg" version="1.1" xmlns:xlink="http://www.w3.org/1999/xlink" xmlns:svgjs="http://svgjs.com/svgjs" width="512" height="512" x="0" y="0" viewBox="0 0 512 512" style="enable-background:new 0 0 512 512" xml:space="preserve" class=""><g><path d="M459.412.086H359.334c-2.248 0-4.329 1.515-4.728 3.727a4.585 4.585 0 0 0 4.503 5.435h86.259c.061-.001.12-.009.182-.009.061 0 .121.007.182.009h.09c2.495 0 4.886 1.165 6.315 3.21 1.711 2.447 1.857 4.726 1.328 6.729v6.299a4.912 4.912 0 0 0-1.979-.417h-91.769c-2.427 0-4.674 1.636-5.105 4.024a4.951 4.951 0 0 0 4.863 5.87h92.011a4.93 4.93 0 0 0 1.979-.417v15.479c.111.422.179.861.222 1.307a4.898 4.898 0 0 0-2.201-.538h-91.769c-2.427 0-4.674 1.636-5.105 4.024a4.951 4.951 0 0 0 4.863 5.87h92.011c.705 0 1.372-.152 1.979-.418v16.665a4.93 4.93 0 0 0-1.979-.417h-91.769c-2.427 0-4.674 1.636-5.105 4.024a4.95 4.95 0 0 0 4.863 5.869h92.011c.785 0 1.517-.199 2.176-.524.048.343.075.692.075 1.048 0 .701-.101 1.377-.271 2.024v13.7a4.912 4.912 0 0 0-1.979-.417h-91.769c-2.427 0-4.674 1.636-5.105 4.024a4.951 4.951 0 0 0 4.863 5.87h92.011c.705 0 1.372-.152 1.979-.418v8.078c.171.647.271 1.324.271 2.025s-.101 1.377-.271 2.024v4.538a4.93 4.93 0 0 0-1.979-.417h-91.769c-2.427 0-4.674 1.636-5.105 4.024a4.95 4.95 0 0 0 4.863 5.869h92.011a4.93 4.93 0 0 0 1.979-.417v16.665a4.912 4.912 0 0 0-1.979-.417h-91.769c-2.427 0-4.674 1.636-5.105 4.024a4.951 4.951 0 0 0 4.863 5.87h92.011a4.93 4.93 0 0 0 1.979-.417v16.665a4.913 4.913 0 0 0-1.979-.418h-91.769c-2.427 0-4.674 1.636-5.105 4.024a4.95 4.95 0 0 0 4.863 5.869h92.011a4.93 4.93 0 0 0 1.979-.417v.677c.171.647.271 1.323.271 2.024s-.101 1.377-.271 2.025v11.939a4.912 4.912 0 0 0-1.979-.417h-91.769c-2.427 0-4.674 1.636-5.105 4.024a4.951 4.951 0 0 0 4.863 5.87h92.011a4.93 4.93 0 0 0 1.979-.417v9.838a7.9 7.9 0 0 1 .271 2.024 7.873 7.873 0 0 1-1.414 4.508 7.901 7.901 0 0 1-6.772 3.834 7.902 7.902 0 0 1-2.549-.427h-84.301a4.171 4.171 0 0 0-.249 8.333c14.588.861 41.105 5.563 58.619 27.103 19.046 23.426 21.591 59.4 7.563 106.923-12.48 42.278-13.94 74.6-13.953 95.233-.006 10.71 4.171 20.782 11.763 28.359 8.51 8.495 20.159 12.71 32.329 11.566a39.803 39.803 0 0 0 22.677-9.885c9.079-8.087 13.918-19.385 13.553-31.397-.667-21.885-3.958-48.34-9.784-78.634-8.653-45.001-10.308-83.607-4.918-114.746 2.577-14.891 8.211-19.426 16.748-32.994a332.195 332.195 0 0 1 3.092-4.799c6.77-10.374 12.117-18.568 12.117-36.524V48.931C508.256 21.955 486.388.086 459.412.086zM136.257 359.483l17.475-49.53L44.344-.086c-22.118 34.257-22.845 86.705-2.096 156.317 17.241 57.841 48.841 126.135 94.009 203.252zM287.638.102 149.902 390.495a.621.621 0 0 1-.016.046l-23.278 65.978c.205-2.038.311-4.104.311-6.194 0-35.523-30.231-64.119-66.317-61.41-30.111 2.26-54.42 26.569-56.681 56.681-2.708 36.086 25.887 66.317 61.411 66.317 24.273 0 45.304-14.119 55.332-34.571 29.918-43.499 68.691-103.359 102.791-167.09C279.38 205.729 333.304 70.781 287.638.102zM105.053 453.575c-1.538 19.299-17.172 34.934-36.472 36.472-24.524 1.954-44.925-18.447-42.971-42.971 1.538-19.3 17.173-34.935 36.472-36.472 24.525-1.954 44.926 18.447 42.971 42.971zm69.413-68.427c-.708 3.196-3.286 5.775-6.482 6.485a8.714 8.714 0 0 1-10.465-10.465c.709-3.196 3.289-5.775 6.486-6.483a8.715 8.715 0 0 1 10.461 10.463zm97.025 3.767c-36.086-2.709-66.317 25.887-66.317 61.41 0 2.152.113 4.278.33 6.375l-15.244-43.21a1914.093 1914.093 0 0 1-10.439 16.55 2062.285 2062.285 0 0 0 31.625 47.333c10.034 20.437 31.055 34.542 55.316 34.542 35.524 0 64.119-30.231 61.411-66.317-2.261-30.113-26.571-54.422-56.682-56.683zm34.992 64.66c-1.538 19.299-17.173 34.934-36.472 36.472-24.524 1.954-44.925-18.447-42.971-42.971 1.538-19.3 17.173-34.935 36.472-36.472 24.525-1.954 44.925 18.447 42.971 42.971z" fill="#000000" data-original="#000000" class=""></path></g></svg>