<svg xmlns="http://www.w3.org/2000/svg" version="1.1" xmlns:xlink="http://www.w3.org/1999/xlink" xmlns:svgjs="http://svgjs.com/svgjs" width="512" height="512" x="0" y="0" viewBox="0 0 511.999 511.999" style="enable-background:new 0 0 512 512" xml:space="preserve" class=""><g><path d="m256.122 246.4-27.006-27.006c-8.455-8.454-19.695-13.109-31.651-13.109-11.957 0-23.197 4.656-31.651 13.11a44.523 44.523 0 0 0-12.495 24.253l-3.712 22.153c-6.396 38.165-24.239 72.802-51.602 100.166-17.815 17.815-46.805 17.815-64.623-.001-8.632-8.63-13.384-20.104-13.384-32.31 0-12.206 4.753-23.68 13.383-32.311L136.366 198.36c3.905-3.905 3.905-10.237 0-14.142-3.905-3.904-10.238-3.904-14.141 0L19.241 287.204C6.833 299.612 0 316.109 0 333.657c0 17.548 6.833 34.045 19.241 46.453 12.808 12.807 29.629 19.209 46.452 19.209 16.822 0 33.646-6.404 46.453-19.21 30.324-30.324 50.098-68.707 57.185-111.003l3.712-22.153a24.624 24.624 0 0 1 6.913-13.417c4.677-4.678 10.896-7.253 17.509-7.253 6.614 0 12.833 2.575 17.508 7.253l27.006 27.006c3.905 3.904 10.237 3.904 14.142 0 3.906-3.904 3.906-10.236.001-14.142zM168.698 151.883a10.076 10.076 0 0 0-7.07-2.93c-2.63 0-5.21 1.069-7.07 2.93a10.076 10.076 0 0 0-2.93 7.07c0 2.64 1.07 5.21 2.93 7.069a10.034 10.034 0 0 0 7.07 2.931c2.63 0 5.21-1.061 7.07-2.931a10.056 10.056 0 0 0 2.93-7.069c0-2.631-1.07-5.21-2.93-7.07zM431.39 71.133l-52.097-52.095C367.021 6.766 350.705.008 333.35.008c-17.355 0-33.672 6.759-45.943 19.03L182.224 124.221c-3.905 3.905-3.905 10.237 0 14.142 1.953 1.951 4.512 2.928 7.071 2.928s5.119-.977 7.071-2.929L301.549 33.181c8.495-8.495 19.788-13.174 31.802-13.174 12.013 0 23.307 4.679 31.802 13.174l52.095 52.095c3.905 3.904 10.237 3.904 14.142 0 3.905-3.905 3.905-10.237 0-14.143z" fill="#ffffff" data-original="#000000" class="" opacity="1"></path><path d="M89.13 310.218c-12.922-12.923-33.95-12.923-46.874 0-12.924 12.924-12.924 33.953 0 46.877 6.462 6.462 14.949 9.692 23.437 9.692s16.976-3.23 23.437-9.692c12.923-12.925 12.923-33.953 0-46.877zm-14.14 32.735c-5.126 5.127-13.466 5.126-18.592 0-5.126-5.126-5.126-13.467 0-18.593a13.108 13.108 0 0 1 9.297-3.845c3.367 0 6.734 1.282 9.296 3.845 5.125 5.126 5.125 13.468-.001 18.593zM402.177 100.344l-55.921-55.922c-3.906-3.903-10.237-3.904-14.141 0-3.905 3.905-3.906 10.237 0 14.143l55.921 55.922a9.969 9.969 0 0 0 7.071 2.929 9.97 9.97 0 0 0 7.071-2.929c3.904-3.905 3.905-10.237-.001-14.143zM372.966 129.555l-55.922-55.922c-3.905-3.904-10.237-3.904-14.142 0-3.905 3.905-3.905 10.237 0 14.142l55.922 55.922c1.953 1.952 4.513 2.929 7.072 2.929s5.119-.977 7.071-2.929c3.904-3.904 3.904-10.236-.001-14.142zM343.754 158.766l-55.921-55.922c-3.905-3.904-10.237-3.904-14.141 0-3.905 3.905-3.906 10.237 0 14.142l55.921 55.922c1.953 1.952 4.512 2.929 7.071 2.929s5.119-.977 7.071-2.929c3.904-3.904 3.905-10.236-.001-14.142zM314.543 187.977l-55.922-55.921c-3.905-3.904-10.237-3.904-14.141 0-3.905 3.905-3.905 10.237 0 14.142l55.922 55.921c1.953 1.952 4.512 2.929 7.071 2.929s5.119-.977 7.071-2.929c3.904-3.904 3.904-10.236-.001-14.142zM285.332 217.189l-55.921-55.922c-3.905-3.903-10.237-3.904-14.141 0-3.905 3.905-3.906 10.237 0 14.143l55.921 55.922c1.953 1.952 4.512 2.929 7.071 2.929s5.119-.977 7.071-2.929c3.904-3.905 3.905-10.237-.001-14.143zM457.16 313.342c9.44-10.708 14.607-24.306 14.607-38.707 0-15.661-6.099-30.387-17.173-41.461-22.86-22.859-60.06-22.859-82.92 0-11.075 11.075-17.173 25.8-17.173 41.461 0 14.339 5.126 27.884 14.489 38.571h-52.487c-5.523 0-10 4.478-10 10s4.477 10 10 10h92.813c-6.978 7.946-11.841 17.782-13.714 28.636H163.293c4.418-16.471 19.477-28.636 37.323-28.636h39.391c5.523 0 10-4.478 10-10s-4.477-10-10-10h-39.391c-32.331 0-58.634 26.304-58.634 58.635 0 5.522 4.477 10 10 10h139.806l-98.834 98.834c-3.905 3.905-3.905 10.237 0 14.142 11.075 11.075 25.799 17.173 41.46 17.173s30.386-6.099 41.459-17.173l112.978-112.976h6.751c4.762 27.582 28.843 48.634 57.764 48.634 32.331 0 58.634-26.303 58.634-58.634 0-31.055-24.272-56.535-54.84-58.499zM261.732 480.674c-7.297 7.298-16.999 11.316-27.318 11.316-6.897 0-13.518-1.795-19.329-5.164L320.072 381.84h40.496l-98.836 98.834zm149.237-167.468c-9.506-.522-18.369-4.469-25.153-11.253-7.297-7.297-11.316-16.998-11.316-27.318s4.019-20.022 11.316-27.319c15.063-15.062 39.575-15.063 54.638 0 7.298 7.297 11.316 16.999 11.316 27.319s-4.019 20.021-11.316 27.318c-6.784 6.785-15.647 10.731-25.152 11.253h-4.333zm42.396 97.269c-21.303 0-38.635-17.331-38.635-38.635s17.331-38.636 38.635-38.636c21.303 0 38.635 17.331 38.635 38.636.001 21.303-17.331 38.635-38.635 38.635z" fill="#ffffff" data-original="#000000" class="" opacity="1"></path><path d="M286.583 316.137a10.08 10.08 0 0 0-7.07-2.93c-2.63 0-5.21 1.07-7.07 2.93a10.076 10.076 0 0 0-2.93 7.07c0 2.63 1.07 5.21 2.93 7.07a10.082 10.082 0 0 0 7.07 2.93c2.63 0 5.21-1.07 7.07-2.93s2.93-4.44 2.93-7.07-1.07-5.21-2.93-7.07zM380.191 341.966a10.066 10.066 0 0 0-7.07-2.92c-2.64 0-5.21 1.06-7.07 2.92a10.081 10.081 0 0 0-2.93 7.08c0 2.63 1.07 5.2 2.93 7.07a10.062 10.062 0 0 0 7.07 2.93c2.63 0 5.209-1.071 7.07-2.93 1.86-1.87 2.93-4.44 2.93-7.07 0-2.64-1.07-5.22-2.93-7.08z" fill="#ffffff" data-original="#000000" class="" opacity="1"></path></g></svg>