<svg width="600" height="643" viewBox="0 0 600 643" fill="none" xmlns="http://www.w3.org/2000/svg">
<g opacity="0.1" clip-path="url(#clip0_30_2)">
<path d="M554.693 159.455C570.063 167.132 582.05 182.987 593.612 195.812C594.23 196.496 595.336 197.394 596.931 198.504C597.307 198.763 597.582 198.68 597.758 198.254C603.507 183.952 571.065 155.673 561.457 146.618C552.877 138.527 546.864 132.228 539.273 128.658C525.557 122.209 506.994 130.6 497.386 140.368C424.146 214.911 349.265 287.95 275.173 361.503C275.114 361.564 275.039 361.606 274.956 361.625C274.874 361.644 274.788 361.638 274.708 361.609C274.629 361.58 274.559 361.529 274.508 361.461C274.458 361.393 274.427 361.312 274.422 361.228C271.716 326.119 268.985 291.006 266.23 255.889C259.507 170.376 248.731 85.2463 233.9 0.500991C233.896 0.464454 233.879 0.430734 233.851 0.407247C233.822 0.38376 233.786 0.37243 233.749 0.375752C233.713 0.379073 233.679 0.396773 233.656 0.424957C233.632 0.453142 233.621 0.489503 233.624 0.52604C233.549 2.35453 232.923 4.43351 232.848 6.11171C228.889 104.75 228.639 203.789 232.058 302.44C233.023 330.256 238.722 357.997 254.23 381.366C254.497 381.759 254.459 382.122 254.117 382.456L138.313 497.438C137.896 497.847 137.465 497.86 137.023 497.476C118.501 481.103 101.929 462.943 87.3068 442.997C87.2618 442.94 87.1979 442.902 87.1268 442.888C87.0557 442.875 86.9823 442.888 86.9199 442.924C86.8575 442.961 86.8103 443.019 86.7871 443.087C86.7638 443.156 86.766 443.23 86.7933 443.297C97.0897 466.592 111.449 487.035 129.87 504.627C130.23 504.969 130.234 505.311 129.883 505.654L98.7682 536.4C98.6764 536.492 98.6889 536.567 98.8058 536.625C98.931 536.684 99.0563 536.659 99.1816 536.55C110.547 527.166 121.82 517.735 133.002 508.259C133.123 508.158 133.277 508.105 133.436 508.109C133.595 508.114 133.748 508.176 133.866 508.284C165.131 536.713 205.04 555.324 247.265 559.169C251.816 559.586 251.904 559.131 247.528 557.803C208.572 546.006 173.357 527.253 141.883 501.546C141.835 501.508 141.796 501.46 141.769 501.405C141.742 501.351 141.727 501.291 141.726 501.23C141.725 501.168 141.737 501.108 141.762 501.052C141.787 500.996 141.824 500.947 141.87 500.907L262.572 397.798C262.652 397.731 262.747 397.685 262.849 397.663C262.951 397.64 263.056 397.643 263.157 397.67C263.257 397.697 263.35 397.747 263.427 397.818C263.504 397.888 263.563 397.976 263.599 398.073C273.858 425.939 273.319 459.115 267.044 486.793C259.115 521.81 250.91 549.275 264.451 580.672C280.096 616.966 314.931 639.497 354.413 641.977C354.881 642.002 355.207 641.801 355.39 641.376L356.593 638.683C356.639 638.584 356.661 638.475 356.658 638.366C356.655 638.257 356.627 638.149 356.576 638.053C356.526 637.956 356.453 637.872 356.365 637.807C356.276 637.743 356.174 637.7 356.067 637.681C339.449 634.609 324.234 628.305 310.422 618.77C297.845 610.091 305.524 597.805 314.693 590.779C331.795 577.662 339.273 560.12 337.127 538.153C334.785 514.17 319.428 503.537 303.532 488.947C292.484 478.815 287.737 467.143 284.981 452.427C282.05 436.772 279.403 414.843 277.04 386.639C277.006 386.246 277.14 385.925 277.44 385.675C284.622 379.471 292.008 373.497 299.599 367.753C315.908 355.429 329.399 360.263 344.931 371.084C357.833 380.076 375.52 398.011 392.317 396.069C392.919 395.994 393.01 395.735 392.593 395.293L350.543 350.733C350.225 350.399 350.23 350.073 350.555 349.756L355.816 344.483C355.864 344.437 355.92 344.4 355.982 344.376C356.043 344.351 356.109 344.339 356.176 344.34C356.242 344.341 356.308 344.356 356.369 344.382C356.429 344.409 356.484 344.448 356.53 344.496C370.593 358.974 384.568 373.409 398.455 387.804C398.53 387.879 398.605 387.916 398.68 387.916C398.881 387.925 398.927 387.866 398.818 387.741L359.524 342.041C359.182 341.64 359.186 341.24 359.536 340.839L362.58 337.395C362.647 337.32 362.728 337.26 362.818 337.217C362.909 337.175 363.007 337.152 363.107 337.15C363.207 337.148 363.306 337.166 363.399 337.204C363.492 337.242 363.575 337.298 363.645 337.37C377.607 351.822 391.553 366.292 405.482 380.778C405.724 381.028 405.941 381.22 406.134 381.354C406.777 381.788 406.852 381.717 406.359 381.141L366.426 334.69C366.1 334.306 366.117 333.934 366.476 333.575L370.685 329.304C371.035 328.945 371.386 328.945 371.737 329.304C384.989 343.097 398.28 356.849 411.607 370.558C415.349 374.399 415.465 374.286 411.958 370.22L374.417 326.649C374.284 326.494 374.214 326.292 374.224 326.085C374.233 325.879 374.32 325.682 374.468 325.535L378.413 321.59C378.806 321.197 379.194 321.201 379.578 321.602L418.296 361.704C422.555 366.112 422.689 365.987 418.697 361.328C406.589 347.176 394.434 333.066 382.234 318.997C381.85 318.555 381.862 318.129 382.271 317.72L386.706 313.286C387.098 312.902 387.486 312.906 387.87 313.299L430.472 357.358C430.522 357.408 430.555 357.395 430.572 357.32C430.589 357.27 430.593 357.212 430.584 357.145C430.576 357.045 430.526 356.94 430.434 356.832C417.123 341.386 403.82 325.935 390.526 310.481C390.217 310.122 390.23 309.775 390.564 309.441L393.244 306.749C393.323 306.671 393.416 306.61 393.519 306.569C393.621 306.527 393.731 306.506 393.842 306.508C393.952 306.509 394.062 306.532 394.163 306.575C394.265 306.619 394.357 306.682 394.434 306.761C408.413 321.306 422.376 335.808 436.321 350.269C436.413 350.361 436.518 350.386 436.635 350.344C436.793 350.286 436.818 350.194 436.71 350.069L397.09 304.069C396.731 303.651 396.743 303.25 397.127 302.866L400.747 299.247C400.817 299.176 400.901 299.121 400.993 299.083C401.086 299.046 401.185 299.027 401.285 299.028C401.385 299.03 401.484 299.051 401.577 299.09C401.67 299.13 401.754 299.187 401.825 299.259L441.307 340.25C446.092 345.218 446.246 345.08 441.77 339.837C429.436 325.409 417.056 311.015 404.63 296.654C404.246 296.22 404.255 295.794 404.655 295.377L407.9 292.008C407.974 291.931 408.064 291.869 408.163 291.827C408.262 291.785 408.368 291.764 408.476 291.764C408.583 291.764 408.69 291.785 408.789 291.827C408.888 291.869 408.977 291.931 409.052 292.008L450.476 334.827C453.465 337.917 453.561 337.829 450.764 334.564L411.82 289.14C411.681 288.978 411.608 288.77 411.615 288.557C411.622 288.343 411.708 288.14 411.858 287.988L415.315 284.494C415.708 284.101 416.092 284.101 416.468 284.494L455.599 325.009C461.386 331.003 461.562 330.841 456.125 324.52L419.324 281.713C418.973 281.304 418.985 280.908 419.361 280.524L422.593 277.292C422.977 276.908 423.361 276.913 423.745 277.305L463.102 318.133C468.564 323.794 468.731 323.644 463.603 317.682L426.388 274.412C426.249 274.25 426.175 274.042 426.182 273.828C426.189 273.615 426.276 273.412 426.426 273.26L431.261 268.425C431.333 268.355 431.419 268.3 431.512 268.262C431.606 268.225 431.706 268.206 431.806 268.207C431.906 268.208 432.005 268.229 432.096 268.269C432.187 268.309 432.27 268.366 432.338 268.438C447.152 283.801 461.941 299.18 476.706 314.576C476.806 314.676 476.923 314.697 477.056 314.639C477.165 314.589 477.182 314.518 477.106 314.426L435.207 265.795C434.806 265.328 434.822 264.873 435.257 264.43L438.589 261.112C439.015 260.686 439.436 260.69 439.854 261.124L481.954 304.62C485.996 308.786 486.121 308.669 482.33 304.269L442.647 258.193C442.504 258.025 442.43 257.809 442.439 257.589C442.448 257.368 442.541 257.159 442.697 257.004L447.632 252.057C448.042 251.648 448.447 251.652 448.848 252.069L492.939 297.719C492.95 297.73 492.962 297.739 492.975 297.745C492.988 297.752 493.002 297.755 493.016 297.757C493.03 297.758 493.043 297.756 493.056 297.752C493.069 297.748 493.08 297.741 493.09 297.731C493.115 297.706 493.136 297.681 493.152 297.656C493.211 297.548 493.177 297.423 493.052 297.281L451.641 249.089C451.324 248.721 451.336 248.362 451.678 248.011L456.012 243.678C456.065 243.626 456.127 243.585 456.195 243.558C456.263 243.531 456.336 243.517 456.41 243.518C456.483 243.519 456.556 243.535 456.623 243.565C456.69 243.594 456.751 243.637 456.802 243.691C472.117 259.504 487.353 275.322 502.509 291.144C502.551 291.186 502.597 291.19 502.647 291.156C502.672 291.14 502.701 291.123 502.735 291.106C502.835 291.056 502.864 291.006 502.822 290.956L459.77 240.91C459.638 240.759 459.57 240.562 459.579 240.359C459.588 240.157 459.675 239.964 459.82 239.821L465.119 234.611C465.47 234.26 465.816 234.264 466.159 234.623L510.138 280.198C513.862 284.055 513.975 283.951 510.476 279.885L469.052 231.718C468.743 231.367 468.752 231.025 469.077 230.691L473.023 226.533C473.332 226.216 473.641 226.216 473.95 226.533L516.889 270.943C520.53 274.7 520.651 274.591 517.253 270.617C503.808 254.912 490.334 239.236 476.831 223.59C476.505 223.222 476.518 222.868 476.868 222.525L482.104 217.29C482.422 216.973 482.735 216.973 483.044 217.29L527.837 263.729C528.029 263.929 528.146 263.892 528.188 263.616C528.23 263.366 528.129 263.153 527.887 262.978C527.553 262.752 527.344 262.589 527.261 262.489C513.516 246.517 499.77 230.528 486.025 214.522C485.666 214.105 485.683 213.704 486.075 213.32L490.998 208.386C491.399 207.985 491.8 207.989 492.2 208.398L535.641 253.359C535.825 253.543 535.937 253.505 535.979 253.246C536.012 253.004 535.921 252.796 535.703 252.62C535.378 252.361 535.194 252.207 535.152 252.157C521.774 236.611 508.38 221.047 494.969 205.468C494.836 205.316 494.768 205.119 494.777 204.916C494.787 204.714 494.873 204.521 495.019 204.378L499.879 199.506C499.972 199.417 500.097 199.368 500.226 199.37C500.355 199.373 500.478 199.426 500.568 199.519C515.649 215.057 530.647 230.566 545.562 246.045C545.678 246.162 545.795 246.25 545.912 246.308C546.255 246.458 546.313 246.4 546.088 246.133L503.599 196.789C503.273 196.405 503.29 196.037 503.649 195.686L508.397 191.015C508.797 190.623 509.194 190.631 509.587 191.04L554.681 237.779C554.797 237.905 554.877 237.88 554.919 237.704C554.935 237.604 554.902 237.504 554.818 237.404C540.647 220.947 526.468 204.47 512.28 187.972C512.166 187.835 512.108 187.661 512.114 187.485C512.121 187.309 512.194 187.143 512.317 187.02L516.376 183C516.793 182.574 517.211 182.578 517.628 183.012L562.572 229.551C562.764 229.743 562.877 229.706 562.91 229.438C562.944 229.205 562.856 229.008 562.647 228.85C562.296 228.599 562.092 228.437 562.033 228.361C548.179 212.281 534.326 196.183 520.472 180.069C520.337 179.911 520.266 179.71 520.27 179.504C520.275 179.298 520.356 179.102 520.497 178.955L523.641 175.623C523.967 175.272 524.296 175.268 524.63 175.611L565.703 218.154C570.956 223.598 571.123 223.448 566.204 217.704C553.403 202.758 540.564 187.846 527.687 172.968C527.294 172.517 527.311 172.083 527.737 171.666L529.916 169.486C529.995 169.408 530.088 169.346 530.191 169.304C530.294 169.261 530.405 169.24 530.517 169.242C530.628 169.243 530.739 169.266 530.843 169.31C530.946 169.354 531.04 169.419 531.119 169.499C545.891 184.745 560.63 200.024 575.336 215.337C575.511 215.529 575.716 215.679 575.95 215.787C576.334 215.971 576.388 215.9 576.113 215.574L534.2 166.869C533.816 166.418 533.866 166.021 534.351 165.679L538.033 163.137C538.443 162.853 538.818 162.886 539.161 163.237L583.14 208.699C583.248 208.816 583.332 208.795 583.39 208.636C583.424 208.528 583.39 208.419 583.29 208.311C569.72 192.722 556.238 177.043 542.843 161.271C542.451 160.812 542.547 160.49 543.131 160.306L547.415 158.954C547.908 158.803 548.334 158.912 548.693 159.279C562.848 173.941 577.006 188.602 591.169 203.263C591.303 203.397 591.432 203.468 591.557 203.476C591.733 203.493 591.762 203.435 591.645 203.301L554.292 159.981C554.242 159.922 554.213 159.848 554.211 159.77C554.209 159.693 554.233 159.617 554.28 159.556C554.327 159.494 554.393 159.451 554.469 159.432C554.544 159.414 554.623 159.422 554.693 159.455Z" stroke="#828384" stroke-width="2"/>
<path d="M394.76 116.823C394.807 116.844 394.848 116.877 394.88 116.917C394.911 116.958 394.933 117.006 394.941 117.057C394.95 117.107 394.946 117.16 394.93 117.208C394.913 117.257 394.885 117.301 394.848 117.337C361.002 150.291 327.374 183.476 293.962 216.89C287.716 223.143 280.221 229.597 271.478 236.252C271.169 236.485 271.036 236.799 271.077 237.191L276.814 288.376C276.839 288.618 276.927 288.643 277.077 288.451L405.37 122.835C405.662 122.459 406.017 122.38 406.434 122.597C426.668 133.175 445.57 145.758 463.14 160.344C463.19 160.394 463.257 160.422 463.328 160.422C463.398 160.422 463.466 160.394 463.516 160.344C463.566 160.294 463.594 160.227 463.594 160.156C463.594 160.086 463.566 160.018 463.516 159.968C449.194 142.042 432.23 127.122 412.622 115.208C412.213 114.957 412.155 114.644 412.447 114.268C424.856 98.5384 437.461 82.9628 450.263 67.5416C450.272 67.5289 450.277 67.5144 450.279 67.4993C450.281 67.4841 450.28 67.4687 450.275 67.4542C450.27 67.4397 450.262 67.4265 450.251 67.4156C450.241 67.4047 450.228 67.3964 450.213 67.3913C450.113 67.3579 450.013 67.3245 449.912 67.2911C449.787 67.2494 449.67 67.2703 449.562 67.3538C433.779 80.8128 418.451 94.7603 403.578 109.196C403.244 109.522 402.869 109.576 402.451 109.359C357.699 85.9142 310.401 79.4769 260.555 90.0471C260.104 90.139 259.825 90.3644 259.716 90.7234C259.599 91.0991 259.737 91.2787 260.129 91.262C307.127 89.208 352.004 97.7285 394.76 116.823Z" stroke="#828384" stroke-width="2"/>
<path d="M220.484 99.6655C110.756 127.281 35.9373 238.957 57.2442 351.284C57.2509 351.344 57.281 351.398 57.328 351.436C57.375 351.474 57.435 351.491 57.4947 351.484C57.5545 351.478 57.6093 351.448 57.6468 351.401C57.6844 351.354 57.7018 351.294 57.6952 351.234C54.2881 238.832 117.395 141.721 221.549 99.8158C221.571 99.805 221.588 99.7874 221.599 99.7657C221.61 99.7439 221.614 99.7193 221.61 99.6953C221.606 99.6714 221.594 99.6494 221.576 99.6328C221.558 99.6161 221.536 99.6056 221.511 99.6029C221.177 99.5612 220.835 99.582 220.484 99.6655Z" stroke="#828384" stroke-width="2"/>
<path d="M526.823 283.667C534.138 355.567 514.271 426.19 466.271 480.381C433.478 517.393 394.008 542.537 347.862 555.812C341.215 557.724 341.307 558.117 348.138 556.99C422.793 544.716 487.052 491.439 516.1 421.756C534.589 377.388 538.317 331.321 527.286 283.555C527.261 283.454 527.211 283.392 527.136 283.367C527.094 283.358 527.052 283.354 527.011 283.354C526.869 283.371 526.806 283.475 526.823 283.667Z" stroke="#828384" stroke-width="2"/>
<path d="M19.6534 445.927C39.9624 454.134 59.2443 453.057 77.499 442.696C99.1816 430.385 112.597 406.99 131.148 390.997C157.478 368.304 191.374 354.252 225.294 347.589C225.729 347.506 225.925 347.243 225.883 346.8C224.23 329.25 223.72 311.666 224.355 294.049C224.372 293.565 224.242 293.519 223.967 293.912C206.004 319.285 182.267 338.622 157.353 357.734C141.332 370.02 124.372 378.624 103.491 373.501C79.8664 367.703 61.1399 358.848 37.2651 371.372C21.357 379.726 6.60126 395.067 1.35282 412.551C-3.2192 427.767 5.92485 440.379 19.6534 445.927Z" stroke="#828384" stroke-width="2"/>
<path d="M295.863 588.921C303.112 588.718 309.933 583.814 314.825 575.287C319.717 566.76 322.279 555.308 321.948 543.452C321.784 537.581 320.914 531.787 319.389 526.402C317.864 521.016 315.713 516.144 313.059 512.064C310.404 507.983 307.299 504.774 303.92 502.62C300.541 500.466 296.954 499.409 293.365 499.509C286.115 499.712 279.295 504.616 274.403 513.143C269.511 521.67 266.949 533.122 267.28 544.978C267.444 550.849 268.313 556.643 269.839 562.028C271.364 567.414 273.515 572.286 276.169 576.366C278.823 580.447 281.928 583.656 285.308 585.81C288.687 587.964 292.273 589.021 295.863 588.921Z" stroke="#828384" stroke-width="2"/>
<path d="M96.9039 387.887C93.5114 380.776 86.1758 375.902 76.5108 374.339C66.8459 372.776 55.6432 374.651 45.3674 379.551C35.0915 384.452 26.5842 391.976 21.7169 400.47C16.8496 408.964 16.021 417.73 19.4134 424.841C22.8059 431.953 30.1415 436.826 39.8065 438.389C49.4714 439.952 60.6741 438.077 70.9499 433.177C81.2258 428.276 89.7331 420.752 94.6004 412.258C99.4677 403.765 100.296 394.998 96.9039 387.887Z" stroke="#828384" stroke-width="2"/>
<path d="M554.292 159.981L591.645 203.301C591.762 203.435 591.733 203.493 591.557 203.476C591.432 203.468 591.303 203.397 591.169 203.263C577.006 188.602 562.848 173.941 548.693 159.279C548.334 158.912 547.908 158.803 547.415 158.954L543.132 160.306C542.547 160.49 542.451 160.812 542.843 161.271C556.238 177.043 569.72 192.722 583.29 208.311C583.39 208.419 583.424 208.528 583.39 208.636C583.332 208.795 583.248 208.816 583.14 208.699L539.161 163.237C538.818 162.886 538.443 162.853 538.033 163.137L534.351 165.679C533.866 166.021 533.816 166.418 534.2 166.869L576.113 215.574C576.388 215.9 576.334 215.971 575.95 215.787C575.716 215.679 575.512 215.529 575.336 215.337C560.631 200.024 545.891 184.745 531.119 169.499C531.04 169.419 530.946 169.354 530.843 169.31C530.739 169.266 530.629 169.243 530.517 169.242C530.405 169.24 530.294 169.261 530.191 169.304C530.088 169.346 529.995 169.408 529.917 169.486L527.737 171.666C527.311 172.083 527.294 172.517 527.687 172.968C540.564 187.846 553.403 202.758 566.205 217.704C571.123 223.448 570.956 223.598 565.704 218.154L524.631 175.611C524.296 175.268 523.967 175.272 523.641 175.623L520.497 178.955C520.356 179.102 520.275 179.298 520.27 179.504C520.266 179.71 520.338 179.911 520.472 180.069C534.326 196.183 548.18 212.281 562.033 228.361C562.092 228.437 562.296 228.599 562.647 228.85C562.856 229.008 562.944 229.205 562.91 229.438C562.877 229.706 562.764 229.743 562.572 229.551L517.628 183.012C517.211 182.578 516.793 182.574 516.376 183L512.317 187.02C512.194 187.143 512.122 187.309 512.115 187.485C512.108 187.661 512.167 187.835 512.28 187.972C526.468 204.47 540.647 220.947 554.818 237.404C554.902 237.504 554.935 237.604 554.919 237.704C554.877 237.88 554.798 237.905 554.681 237.779L509.587 191.04C509.194 190.631 508.798 190.623 508.397 191.015L503.649 195.686C503.29 196.037 503.274 196.405 503.599 196.789L546.088 246.133C546.313 246.4 546.255 246.458 545.912 246.308C545.795 246.25 545.679 246.162 545.562 246.045C530.647 230.566 515.649 215.057 500.568 199.519C500.478 199.426 500.355 199.373 500.226 199.37C500.097 199.368 499.972 199.417 499.879 199.506L495.019 204.378C494.873 204.521 494.787 204.714 494.777 204.916C494.768 205.119 494.836 205.316 494.969 205.468C508.38 221.047 521.775 236.611 535.152 252.157C535.194 252.207 535.378 252.361 535.704 252.62C535.921 252.796 536.013 253.004 535.979 253.246C535.937 253.505 535.825 253.543 535.641 253.359L492.2 208.398C491.8 207.989 491.399 207.985 490.998 208.386L486.075 213.32C485.683 213.704 485.666 214.105 486.025 214.522C499.77 230.528 513.516 246.517 527.261 262.489C527.345 262.589 527.553 262.752 527.887 262.978C528.129 263.153 528.23 263.366 528.188 263.616C528.146 263.892 528.029 263.929 527.837 263.729L483.044 217.29C482.735 216.973 482.422 216.973 482.104 217.29L476.869 222.525C476.518 222.868 476.505 223.222 476.831 223.59C490.334 239.236 503.808 254.912 517.253 270.617C520.651 274.591 520.53 274.7 516.889 270.943L473.95 226.533C473.641 226.216 473.332 226.216 473.023 226.533L469.077 230.691C468.752 231.025 468.743 231.367 469.052 231.718L510.476 279.885C513.975 283.951 513.862 284.055 510.138 280.198L466.159 234.623C465.816 234.264 465.47 234.26 465.119 234.611L459.821 239.821C459.675 239.964 459.588 240.157 459.579 240.359C459.57 240.562 459.638 240.759 459.77 240.91L502.823 290.956C502.864 291.006 502.835 291.056 502.735 291.106C502.702 291.123 502.672 291.14 502.647 291.156C502.597 291.19 502.551 291.186 502.509 291.144C487.353 275.322 472.117 259.504 456.802 243.691C456.751 243.637 456.691 243.594 456.623 243.565C456.556 243.535 456.483 243.519 456.41 243.518C456.336 243.517 456.263 243.531 456.195 243.558C456.127 243.585 456.065 243.626 456.013 243.678L451.679 248.011C451.336 248.362 451.324 248.721 451.641 249.089L493.052 297.281C493.177 297.423 493.211 297.548 493.152 297.656C493.136 297.681 493.115 297.706 493.09 297.731C493.08 297.741 493.069 297.748 493.056 297.752C493.043 297.756 493.03 297.758 493.016 297.757C493.002 297.755 492.988 297.752 492.975 297.745C492.962 297.739 492.95 297.73 492.94 297.719L448.848 252.069C448.447 251.652 448.042 251.648 447.633 252.057L442.697 257.004C442.541 257.159 442.449 257.368 442.439 257.589C442.43 257.809 442.504 258.025 442.647 258.193L482.33 304.269C486.121 308.669 485.996 308.786 481.954 304.62L439.854 261.124C439.436 260.69 439.015 260.686 438.589 261.112L435.257 264.43C434.823 264.873 434.806 265.328 435.207 265.795L477.107 314.426C477.182 314.518 477.165 314.589 477.056 314.639C476.923 314.697 476.806 314.676 476.706 314.576C461.942 299.18 447.152 283.801 432.338 268.438C432.27 268.366 432.187 268.309 432.096 268.269C432.005 268.229 431.906 268.208 431.806 268.207C431.706 268.206 431.606 268.225 431.513 268.262C431.419 268.3 431.333 268.355 431.261 268.425L426.426 273.26C426.276 273.412 426.189 273.615 426.183 273.828C426.176 274.042 426.249 274.25 426.388 274.412L463.603 317.682C468.731 323.644 468.564 323.794 463.102 318.133L423.745 277.305C423.361 276.913 422.977 276.908 422.593 277.292L419.361 280.524C418.985 280.908 418.973 281.304 419.324 281.713L456.125 324.52C461.562 330.841 461.386 331.003 455.599 325.009L416.468 284.494C416.092 284.101 415.708 284.101 415.315 284.494L411.858 287.988C411.708 288.14 411.622 288.343 411.615 288.557C411.608 288.77 411.681 288.978 411.82 289.14L450.764 334.564C453.562 337.829 453.466 337.917 450.476 334.827L409.052 292.008C408.977 291.931 408.888 291.869 408.789 291.827C408.69 291.785 408.584 291.764 408.476 291.764C408.369 291.764 408.262 291.785 408.163 291.827C408.064 291.869 407.975 291.931 407.9 292.008L404.656 295.377C404.255 295.794 404.246 296.22 404.631 296.654C417.056 311.015 429.436 325.409 441.77 339.837C446.246 345.08 446.092 345.218 441.307 340.25L401.825 299.259C401.754 299.187 401.67 299.13 401.577 299.09C401.484 299.051 401.385 299.03 401.285 299.028C401.185 299.027 401.086 299.046 400.993 299.083C400.901 299.121 400.818 299.176 400.747 299.247L397.127 302.866C396.743 303.25 396.731 303.651 397.09 304.069L436.71 350.069C436.818 350.194 436.793 350.286 436.635 350.344C436.518 350.386 436.413 350.361 436.322 350.269C422.376 335.808 408.413 321.306 394.434 306.761C394.357 306.682 394.265 306.619 394.163 306.575C394.062 306.532 393.952 306.509 393.842 306.508C393.731 306.506 393.622 306.527 393.519 306.569C393.416 306.61 393.323 306.671 393.244 306.749L390.564 309.441C390.23 309.775 390.217 310.122 390.526 310.481C403.82 325.935 417.123 341.386 430.434 356.832C430.526 356.94 430.576 357.045 430.585 357.145C430.593 357.212 430.589 357.27 430.572 357.32C430.555 357.395 430.522 357.408 430.472 357.358L387.871 313.299C387.486 312.906 387.098 312.902 386.706 313.286L382.271 317.72C381.862 318.129 381.85 318.555 382.234 318.997C394.434 333.066 406.589 347.176 418.697 361.328C422.689 365.987 422.555 366.112 418.297 361.704L379.578 321.602C379.194 321.201 378.806 321.197 378.413 321.59L374.468 325.535C374.32 325.682 374.233 325.879 374.224 326.085C374.214 326.292 374.284 326.494 374.418 326.649L411.958 370.22C415.466 374.286 415.349 374.399 411.608 370.558C398.28 356.849 384.99 343.097 371.737 329.304C371.386 328.945 371.036 328.945 370.685 329.304L366.476 333.575C366.117 333.934 366.1 334.306 366.426 334.69L406.359 381.141C406.852 381.717 406.777 381.788 406.134 381.354C405.942 381.22 405.724 381.028 405.482 380.778C391.553 366.292 377.608 351.822 363.645 337.37C363.575 337.298 363.492 337.242 363.399 337.204C363.307 337.166 363.207 337.148 363.107 337.15C363.007 337.152 362.909 337.175 362.818 337.217C362.728 337.26 362.647 337.32 362.58 337.395L359.537 340.839C359.186 341.24 359.182 341.64 359.524 342.041L398.818 387.741C398.927 387.866 398.881 387.925 398.681 387.916C398.605 387.916 398.53 387.879 398.455 387.804C384.568 373.409 370.593 358.974 356.53 344.496C356.485 344.448 356.43 344.409 356.369 344.382C356.308 344.356 356.242 344.341 356.176 344.34C356.11 344.339 356.043 344.351 355.982 344.376C355.92 344.4 355.864 344.437 355.816 344.483L350.555 349.756C350.23 350.073 350.226 350.399 350.543 350.733L392.593 395.293C393.01 395.735 392.919 395.994 392.317 396.069C375.52 398.011 357.833 380.076 344.931 371.084C329.399 360.263 315.908 355.429 299.599 367.753C292.008 373.497 284.622 379.471 277.441 385.675C277.14 385.925 277.006 386.246 277.04 386.639C279.403 414.843 282.05 436.772 284.981 452.427C287.737 467.143 292.484 478.815 303.532 488.947C319.428 503.537 334.785 514.17 337.127 538.153C339.274 560.12 331.795 577.662 314.693 590.779C305.524 597.805 297.846 610.091 310.422 618.77C324.234 628.305 339.449 634.609 356.067 637.681C356.175 637.7 356.277 637.743 356.365 637.807C356.453 637.872 356.526 637.956 356.577 638.053C356.627 638.149 356.655 638.257 356.658 638.366C356.661 638.475 356.639 638.584 356.593 638.683L355.39 641.376C355.207 641.801 354.881 642.002 354.413 641.977C314.931 639.497 280.096 616.966 264.451 580.672C250.91 549.275 259.115 521.81 267.044 486.793C273.319 459.115 273.858 425.939 263.599 398.073C263.563 397.976 263.504 397.888 263.427 397.818C263.35 397.747 263.258 397.697 263.157 397.67C263.056 397.643 262.951 397.64 262.849 397.663C262.747 397.685 262.652 397.731 262.572 397.798L141.871 500.907C141.824 500.947 141.787 500.996 141.762 501.052C141.737 501.108 141.725 501.168 141.726 501.23C141.727 501.291 141.742 501.351 141.769 501.405C141.796 501.46 141.835 501.508 141.883 501.546C173.357 527.253 208.572 546.006 247.528 557.803C251.904 559.131 251.816 559.586 247.265 559.169C205.04 555.324 165.132 536.713 133.866 508.284C133.748 508.176 133.595 508.114 133.436 508.109C133.277 508.105 133.123 508.158 133.002 508.259C121.821 517.735 110.547 527.166 99.1817 536.55C99.0564 536.659 98.9312 536.684 98.8059 536.625C98.689 536.567 98.6765 536.492 98.7683 536.4L129.883 505.654C130.234 505.311 130.23 504.969 129.871 504.627C111.449 487.035 97.0898 466.592 86.7934 443.297C86.7662 443.23 86.764 443.156 86.7872 443.087C86.8105 443.019 86.8576 442.961 86.92 442.924C86.9824 442.888 87.0558 442.875 87.1269 442.888C87.198 442.902 87.2619 442.94 87.307 442.997C101.929 462.943 118.501 481.103 137.023 497.476C137.466 497.86 137.896 497.847 138.313 497.438L254.117 382.456C254.459 382.122 254.497 381.759 254.23 381.366C238.722 357.997 233.023 330.256 232.059 302.44C228.639 203.789 228.889 104.75 232.848 6.11171C232.923 4.43351 233.549 2.35453 233.624 0.52604C233.621 0.489503 233.632 0.453142 233.656 0.424957C233.679 0.396773 233.713 0.379073 233.75 0.375752C233.786 0.37243 233.822 0.38376 233.851 0.407247C233.879 0.430734 233.897 0.464454 233.9 0.500991C248.731 85.2463 259.507 170.376 266.23 255.889C268.985 291.006 271.716 326.119 274.422 361.228C274.428 361.312 274.458 361.393 274.509 361.461C274.559 361.529 274.629 361.58 274.708 361.609C274.788 361.638 274.874 361.644 274.956 361.625C275.039 361.606 275.114 361.564 275.173 361.503C349.265 287.95 424.146 214.911 497.386 140.368C506.994 130.6 525.557 122.209 539.274 128.658C546.864 132.228 552.877 138.527 561.457 146.618C571.065 155.673 603.507 183.952 597.758 198.254C597.583 198.68 597.307 198.763 596.931 198.504C595.336 197.394 594.23 196.496 593.612 195.812C582.05 182.987 570.063 167.132 554.693 159.455C554.623 159.422 554.544 159.414 554.469 159.432C554.394 159.451 554.327 159.494 554.28 159.556C554.233 159.617 554.209 159.693 554.211 159.77C554.213 159.848 554.242 159.922 554.292 159.981ZM295.863 588.921C303.112 588.718 309.933 583.814 314.825 575.287C319.717 566.76 322.279 555.308 321.948 543.452C321.784 537.581 320.914 531.787 319.389 526.402C317.864 521.016 315.713 516.144 313.059 512.064C310.404 507.983 307.299 504.774 303.92 502.62C300.541 500.466 296.954 499.409 293.365 499.509C286.115 499.712 279.295 504.616 274.403 513.143C269.511 521.67 266.949 533.122 267.28 544.978C267.444 550.849 268.313 556.643 269.839 562.028C271.364 567.414 273.515 572.286 276.169 576.366C278.823 580.447 281.928 583.656 285.308 585.81C288.687 587.964 292.273 589.021 295.863 588.921Z" fill="black"/>
<path d="M394.76 116.823C352.004 97.7284 307.127 89.208 260.129 91.2619C259.737 91.2786 259.599 91.0991 259.716 90.7234C259.825 90.3644 260.104 90.1389 260.555 90.0471C310.401 79.4769 357.699 85.9142 402.451 109.359C402.868 109.576 403.244 109.522 403.578 109.196C418.451 94.7603 433.779 80.8128 449.561 67.3537C449.67 67.2702 449.787 67.2493 449.912 67.2911C450.012 67.3245 450.113 67.3579 450.213 67.3913C450.227 67.3963 450.24 67.4046 450.251 67.4155C450.262 67.4264 450.27 67.4396 450.275 67.4541C450.28 67.4686 450.281 67.4841 450.279 67.4992C450.277 67.5144 450.271 67.5288 450.263 67.5416C437.461 82.9627 424.856 98.5383 412.447 114.268C412.154 114.644 412.213 114.957 412.622 115.208C432.23 127.122 449.194 142.042 463.516 159.968C463.565 160.018 463.593 160.086 463.593 160.156C463.593 160.227 463.565 160.294 463.516 160.344C463.466 160.394 463.398 160.422 463.328 160.422C463.257 160.422 463.19 160.394 463.14 160.344C445.57 145.758 426.668 133.175 406.434 122.597C406.017 122.38 405.662 122.459 405.369 122.835L277.077 288.451C276.927 288.643 276.839 288.618 276.814 288.376L271.077 237.191C271.035 236.798 271.169 236.485 271.478 236.252C280.221 229.597 287.716 223.143 293.962 216.89C327.374 183.476 361.002 150.291 394.848 117.337C394.885 117.301 394.913 117.257 394.929 117.208C394.946 117.159 394.95 117.107 394.941 117.057C394.932 117.006 394.911 116.958 394.88 116.917C394.848 116.876 394.807 116.844 394.76 116.823Z" fill="black"/>
<path d="M57.2442 351.284C35.9373 238.957 110.756 127.281 220.484 99.6655C220.835 99.582 221.177 99.5611 221.511 99.6028C221.536 99.6056 221.558 99.6161 221.576 99.6327C221.594 99.6494 221.606 99.6713 221.61 99.6953C221.614 99.7192 221.61 99.7439 221.599 99.7656C221.588 99.7873 221.571 99.8049 221.549 99.8157C117.395 141.721 54.2881 238.831 57.6952 351.234C57.7018 351.294 57.6844 351.354 57.6468 351.401C57.6093 351.448 57.5545 351.478 57.4947 351.484C57.435 351.491 57.375 351.474 57.328 351.436C57.281 351.398 57.2509 351.344 57.2442 351.284Z" fill="black"/>
<path d="M466.272 480.381C514.272 426.19 534.138 355.567 526.823 283.667C526.806 283.475 526.869 283.371 527.011 283.354C527.052 283.354 527.094 283.358 527.136 283.367C527.211 283.392 527.261 283.454 527.286 283.554C538.317 331.321 534.589 377.388 516.1 421.756C487.052 491.439 422.793 544.716 348.138 556.989C341.307 558.117 341.215 557.724 347.862 555.812C394.008 542.537 433.478 517.393 466.272 480.381Z" fill="black"/>
<path d="M19.6534 445.927C5.92485 440.379 -3.2192 427.767 1.35282 412.551C6.60126 395.067 21.357 379.726 37.2651 371.372C61.1399 358.848 79.8664 367.703 103.491 373.501C124.372 378.624 141.332 370.02 157.353 357.734C182.267 338.622 206.004 319.285 223.967 293.912C224.242 293.519 224.372 293.565 224.355 294.049C223.72 311.666 224.23 329.25 225.883 346.8C225.925 347.243 225.729 347.506 225.294 347.589C191.374 354.252 157.478 368.304 131.148 390.997C112.597 406.99 99.1816 430.385 77.499 442.696C59.2443 453.057 39.9624 454.134 19.6534 445.927ZM96.9039 387.887C93.5114 380.775 86.1758 375.902 76.5109 374.339C66.8459 372.776 55.6433 374.651 45.3674 379.551C35.0915 384.452 26.5842 391.976 21.7169 400.47C16.8496 408.963 16.021 417.73 19.4135 424.841C22.8059 431.953 30.1415 436.826 39.8065 438.389C49.4714 439.952 60.6741 438.077 70.9499 433.177C81.2258 428.276 89.7332 420.752 94.6005 412.258C99.4678 403.765 100.296 394.998 96.9039 387.887Z" fill="black"/>
</g>
<defs>
<clipPath id="clip0_30_2">
<rect width="600" height="642.478" fill="white"/>
</clipPath>
</defs>
</svg>
